<?xml version="1.0" encoding="utf-8"?>
<!-- Generator: Adobe Illustrator 16.0.4, SVG Export Plug-In . SVG Version: 6.00 Build 0)  -->
<!DOCTYPE svg PUBLIC "-//W3C//DTD SVG 1.1//EN" "http://www.w3.org/Graphics/SVG/1.1/DTD/svg11.dtd">
<svg version="1.1" xmlns="http://www.w3.org/2000/svg" xmlns:xlink="http://www.w3.org/1999/xlink" x="0px" y="0px"
	 width="603.63px" height="110.129px" viewBox="0 0 603.63 110.129" enable-background="new 0 0 603.63 110.129"
	 xml:space="preserve">
<g id="Layer_3" display="none">
	<rect x="-109.822" y="-91.908" display="inline" fill="#121319" width="797" height="308"/>
</g>
<g id="Layer_4" display="none">
	<rect x="172.178" y="41.631" display="inline" fill="none" width="472" height="80.73"/>
	
		<text transform="matrix(1 0 0 1 172.1782 99.3809)" display="inline" fill="#BF519B" font-family="'Futura-MediumItalic'" font-size="70">International</text>
</g>
<g id="Layer_1">
	<g>
		<path fill="#564D45" d="M36.633,88.073c-0.414,2.277-1.794,8.763-2.415,10.902H0.959v-1.932c6.279-0.483,6.831-1.035,6.831-6.624
			V62.957c0-6.21-0.552-6.417-5.934-6.9v-1.932H32.63c0,1.725,0.345,6.417,0.552,9.936l-2.001,0.345
			c-0.621-2.898-1.311-4.416-2.208-5.934c-0.966-1.449-2.829-1.932-7.797-1.932h-5.244c-2.139,0-2.277,0.138-2.277,2.208v15.663
			h6.486c6.21,0,6.555-0.552,7.452-5.175h2.001v13.248h-2.001c-0.897-4.968-1.38-5.382-7.383-5.382h-6.555v13.041
			c0,3.243,0.414,4.692,1.656,5.589c1.311,0.828,3.726,0.897,7.176,0.897c5.244,0,7.176-0.552,8.694-2.346
			c1.173-1.38,2.484-3.726,3.381-6.486L36.633,88.073z"/>
		<path fill="#564D45" d="M78.377,98.975v-1.794c4.071-0.414,4.83-0.69,4.83-5.589V80.069c0-4.899-1.725-8.004-6.072-8.004
			c-2.484,0-5.106,1.38-7.728,3.588c0.138,0.828,0.207,1.587,0.207,2.898v13.455c0,4.347,0.621,4.761,4.416,5.175v1.794H59.264
			v-1.794c4.278-0.414,4.899-0.759,4.899-5.313V80c0-5.106-1.794-7.935-6.003-7.935c-2.76,0-5.451,1.863-7.521,3.588v16.215
			c0,4.485,0.552,4.899,3.933,5.313v1.794H40.013v-1.794c4.554-0.414,5.175-0.828,5.175-5.313V77.585
			c0-4.416-0.207-4.761-4.209-5.382v-1.587c3.036-0.552,6.555-1.449,9.591-2.829v5.589c1.449-0.966,2.967-2.208,5.037-3.519
			c1.794-1.104,3.45-1.863,5.658-1.863c3.312,0,6.279,2.07,7.659,5.658c2.001-1.518,4.002-2.829,5.727-3.864
			c1.449-0.966,3.243-1.794,5.175-1.794c5.382,0,8.763,3.795,8.763,10.557v13.317c0,4.623,0.552,4.899,4.485,5.313v1.794H78.377z"/>
		<path fill="#564D45" d="M127.021,83.381c0,11.109-8.142,16.422-14.973,16.422c-9.453,0-15.111-7.59-15.111-15.249
			c0-11.385,8.832-16.56,15.111-16.56C120.604,67.994,127.021,74.825,127.021,83.381z M103.354,82.346
			c0,8.694,3.795,15.18,9.453,15.18c4.278,0,7.797-3.174,7.797-12.627c0-8.073-3.243-14.628-9.246-14.628
			C107.08,70.271,103.354,74.549,103.354,82.346z"/>
		<path fill="#564D45" d="M131.162,70.547c3.657-0.552,7.107-1.449,10.074-2.691v23.391c0,4.554-0.276,7.521-1.587,11.178
			c-2.346,6.9-5.771,8.334-6.141,7.038c-0.364-1.274,1.38-2.553,1.725-4.968c0.414-2.967,0.621-7.038,0.621-13.317V77.723
			c0-4.692-0.414-4.968-4.692-5.589V70.547z M134.681,58.472c0-2.07,1.587-3.588,3.519-3.588c1.863,0,3.381,1.518,3.381,3.588
			c0,1.863-1.518,3.519-3.45,3.519C136.268,61.991,134.681,60.335,134.681,58.472z"/>
		<path fill="#564D45" d="M148.687,98.975v-1.794c4.347-0.414,4.83-0.828,4.83-5.52V77.447c0-4.278-0.207-4.554-4.347-5.244v-1.656
			c3.519-0.552,6.762-1.449,9.798-2.691v23.805c0,4.692,0.483,5.106,4.899,5.52v1.794H148.687z M152.344,58.472
			c0-2.07,1.656-3.588,3.519-3.588c1.932,0,3.45,1.518,3.45,3.588c0,1.863-1.518,3.519-3.519,3.519
			C154,61.991,152.344,60.335,152.344,58.472z"/>
	</g>
	<g>
		<path fill="#E7E7E4" d="M483.182,1.117c-0.111,0.333-0.223,0.74-0.295,1.147c-0.074,0.481-0.111,0.666-0.223,1.258
			c-0.111,0.777-0.111,0.777-0.629,3.552c-0.148,0.814-0.148,0.888-0.26,1.369c1.074-0.074,1.592-0.111,2.295-0.111
			c2.441,0,4.254,0.666,5.477,1.961c1.258,1.406,1.738,3.182,1.738,6.55c0,6.364-1.072,11.434-2.85,13.469
			c-1.035,1.221-2.146,1.665-4.107,1.665c-1.701,0-3.219-0.296-5.697-1.073c0.037-0.74,0.074-1.258,0.074-1.628
			c0-0.962-0.074-1.702-0.371-3.145c1.998,0.888,4.107,1.443,5.402,1.443c1.074,0,1.666-0.703,2.221-2.516
			c0.592-1.924,0.963-5.292,0.963-8.437c0-3.404-0.852-4.403-3.775-4.403c-0.74,0-1.295,0.037-2.146,0.111
			c-1.109,4.515-1.443,5.625-2.256,8.03c-1.295,3.7-2.295,6.068-4.441,10.397c-0.186,0.37-0.186,0.37-0.555,1.11
			c-0.111,0.222-0.111,0.259-0.297,0.629l-4.291-2.368c1.109-1.48,2.59-4.144,3.848-6.957c1.592-3.626,2.109-5.18,3.59-10.472
			c-1.887,0.222-5.402,0.851-6.623,1.184l-0.445-4.366c1.369,0,5.848-0.444,7.883-0.74c0.666-3.996,0.961-6.253,0.961-7.475
			c0-0.148,0-0.407,0-0.703L483.182,1.117z M495.43,5.854c3.699,4.329,6.031,8.732,7.623,14.431l-4.219,2.146
			c-0.703-3.183-1.555-5.625-2.961-8.4c-1.332-2.738-2.516-4.44-4.254-6.327L495.43,5.854z"/>
		<path fill="#E7E7E4" d="M518.258,26.945c0,1.517-0.074,2.405-0.295,3.145c-0.334,1.295-1.666,2.146-3.404,2.146
			c-2.332,0-5.145-1.036-6.994-2.627c-1.332-1.147-2.035-2.59-2.035-4.181c0-1.739,1.146-3.7,3.182-5.477
			c1.332-1.147,2.961-2.109,5.402-3.145l-0.037-5.699c-0.295,0-0.295,0-1.516,0.074c-0.557,0.037-1.074,0.037-2,0.037
			c-0.555,0-1.59-0.037-2.035-0.037c-0.48-0.037-0.812-0.037-0.924-0.037c-0.148,0-0.443,0-0.777,0.037l-0.037-4.144
			c1.037,0.222,2.516,0.333,4.477,0.333c0.371,0,0.777,0,1.297-0.037c0.887-0.037,1.072-0.037,1.479-0.037V4.854
			c0-2.109-0.037-3.071-0.221-4.255h4.625c-0.186,1.184-0.223,1.961-0.223,4.033V7c2.775-0.333,5.254-0.814,7.143-1.406l0.146,4.145
			c-0.666,0.111-1.369,0.222-3.922,0.666c-1.221,0.222-1.961,0.333-3.367,0.481v4.81c2.516-0.74,4.848-1.036,7.549-1.036
			c6.18,0,10.582,3.774,10.582,9.029c0,4.811-3.588,8.437-8.398,8.437c-2.998,0-5.107-1.443-6.068-4.107
			c-0.482-1.258-0.629-2.479-0.629-4.736c1.887-0.518,2.516-0.777,4.107-1.628c-0.074,0.703-0.074,1.036-0.074,1.628
			c0,1.554,0.146,2.553,0.518,3.256c0.406,0.777,1.295,1.258,2.332,1.258c2.182,0,3.736-1.739,3.736-4.107
			c0-3.182-2.59-5.254-6.549-5.254c-2.221,0-4.479,0.407-7.105,1.221L518.258,26.945z M514.077,20.987
			c-2.775,1.48-4.402,3.108-4.402,4.44c0,0.629,0.369,1.184,1.221,1.702c0.74,0.518,1.666,0.814,2.367,0.814
			c0.631,0,0.814-0.333,0.814-1.554V20.987z M534.577,13.513c-1.85-2.923-4.551-5.846-7.4-7.993l3.479-2.331
			c3.219,2.479,5.365,4.699,7.326,7.585L534.577,13.513z"/>
		<path fill="#E7E7E4" d="M542.344,14.845c1.701,0.666,2.738,0.888,6.512,1.406c0.148-1.332,0.482-3.811,0.666-5.18
			c-2.182-0.296-2.775-0.37-5.291-0.925c-0.518-0.111-0.703-0.148-1.258-0.259l0.369-4.07c1.555,0.592,4.182,1.11,6.699,1.332
			c0.518-3.108,0.738-5.032,0.738-6.143c0-0.111,0-0.185-0.035-0.37l4.92,0.444c-0.406,1.147-0.518,1.702-1.184,6.253
			c4.182-0.074,6.328-0.259,8.438-0.777l-0.148,4.33c-0.482,0.037-0.666,0.074-1.48,0.148c-2.664,0.222-3.848,0.296-5.18,0.296
			c-0.371,0-0.703,0-2.295-0.037c-0.369,2.701-0.48,3.441-0.703,5.218c1.109,0.037,1.406,0.037,1.812,0.037
			c2.627,0,5.293-0.259,7.068-0.74l-0.111,4.255c-0.369,0-0.48,0-1.109,0.111c-1.629,0.185-3.812,0.333-5.551,0.333
			c-0.592,0-0.926,0-2.369-0.074c-0.109,0.999-0.184,1.961-0.184,2.627c0,1.813,0.406,2.96,1.369,3.811
			c1.072,0.925,2.553,1.369,4.588,1.369c4.699,0,7.4-2.072,7.4-5.698c0-2.146-1.109-4.218-3.33-6.253
			c2.072-0.148,2.85-0.296,4.588-0.925c0.926,1.073,1.332,1.628,1.74,2.332c0.961,1.628,1.59,3.737,1.59,5.439
			c0,2.627-1.295,5.181-3.553,6.919c-2.107,1.628-4.883,2.442-8.361,2.442c-6.734,0-10.398-3.219-10.398-9.177
			c0-0.962,0.037-1.887,0.186-3.145c-2.221-0.296-3.664-0.518-5.145-0.851c-0.775-0.185-0.887-0.185-1.404-0.222L542.344,14.845z"/>
		<path fill="#E7E7E4" d="M583.415,1.635c-0.221,1.073-0.295,2.146-0.443,4.996c-0.148,3.441-0.369,10.953-0.369,13.58
			c0,3.515,0.221,4.847,0.961,5.957c0.852,1.221,2.627,1.924,4.959,1.924c3.996,0,7.215-2.257,8.955-6.328
			c0.814-1.924,1.295-3.663,1.701-6.216c1.998,1.628,2.664,2.035,4.479,2.849c-1.48,4.996-2.592,7.401-4.404,9.436
			c-2.775,3.145-6.438,4.699-11.102,4.699c-2.553,0-4.92-0.592-6.475-1.628c-2.553-1.702-3.627-4.551-3.627-9.509
			c0-1.924,0.074-5.625,0.297-14.912c0.037-1.11,0.037-1.887,0.037-2.405c0-1.036-0.037-1.554-0.148-2.516L583.415,1.635z
			 M594.887,2.819c1.59,1.666,2.182,2.517,3.588,5.069l-2.887,1.591c-0.85-1.813-2.07-3.589-3.551-5.143L594.887,2.819z
			 M599.659,7.148c-1.035-1.961-1.998-3.367-3.439-4.996l2.701-1.48c1.516,1.554,2.293,2.627,3.514,4.811L599.659,7.148z"/>
	</g>
</g>
<g id="Layer_5">
	<g>
		<path fill="#B862FC" d="M195.22,50.198l-10.419,49.266h-10.833l10.35-49.266H195.22z"/>
		<path fill="#B862FC" d="M210.606,63.792l-1.104,4.968h0.138c3.174-3.956,7.336-5.934,12.489-5.934
			c6.945,0,10.419,3.198,10.419,9.591c0,0.369-0.046,0.84-0.138,1.415c-0.093,0.576-0.196,1.162-0.311,1.759
			c-0.115,0.598-0.23,1.162-0.345,1.69c-0.115,0.529-0.196,0.955-0.242,1.276l-4.416,20.907H217.3l4.347-20.907
			c0.092-0.552,0.218-1.287,0.38-2.208c0.161-0.919,0.241-1.632,0.241-2.139c0-1.058-0.495-1.932-1.483-2.622
			c-0.99-0.69-2.059-1.035-3.208-1.035c-1.473,0-2.772,0.288-3.898,0.863c-1.128,0.576-2.094,1.323-2.898,2.242
			c-0.806,0.921-1.473,1.979-2.001,3.174c-0.53,1.197-0.932,2.415-1.208,3.657l-4.002,18.975h-9.729l7.383-35.673H210.606z"/>
		<path fill="#B862FC" d="M262.978,63.792l-1.519,6.555h-6.97l-3.656,17.733c-0.093,0.369-0.162,0.702-0.207,1
			c-0.047,0.299-0.069,0.517-0.069,0.655c0,0.645,0.104,1.139,0.311,1.483c0.207,0.345,0.472,0.61,0.794,0.793
			c0.32,0.185,0.678,0.288,1.069,0.311c0.39,0.024,0.77,0.035,1.138,0.035c1.196,0,2.369-0.069,3.52-0.207l-1.656,7.521
			c-1.012,0.092-2.024,0.172-3.035,0.242c-1.013,0.069-2.048,0.103-3.105,0.103c-1.15,0-2.289-0.103-3.416-0.31
			s-2.139-0.575-3.035-1.104c-0.897-0.528-1.611-1.253-2.139-2.174c-0.529-0.919-0.771-2.115-0.725-3.588
			c0-0.459,0.045-0.977,0.138-1.552c0.091-0.575,0.206-1.184,0.345-1.829l4.002-19.113h-6.417l1.519-6.555h6.278l2.208-10.833h9.799
			l-2.209,10.833H262.978z"/>
		<path fill="#B862FC" d="M272.361,84.629c0,0.184,0,0.369,0,0.552v0.897c0,2.07,0.645,3.75,1.932,5.037
			c1.288,1.289,3.266,1.932,5.935,1.932c0.966,0,1.829-0.149,2.587-0.449c0.76-0.298,1.426-0.678,2.002-1.138
			c0.574-0.459,1.08-0.989,1.518-1.587c0.437-0.598,0.839-1.173,1.207-1.725h9.799c-0.783,2.024-1.703,3.795-2.76,5.313
			c-1.059,1.518-2.324,2.794-3.795,3.83c-1.473,1.035-3.187,1.806-5.141,2.312c-1.956,0.505-4.221,0.759-6.797,0.759
			c-2.393,0-4.566-0.322-6.521-0.966c-1.956-0.644-3.622-1.622-5.003-2.933c-1.379-1.311-2.449-2.933-3.208-4.865
			c-0.759-1.932-1.139-4.185-1.139-6.762c0-2.852,0.46-5.6,1.38-8.246c0.92-2.645,2.219-4.991,3.898-7.038
			c1.679-2.046,3.736-3.68,6.176-4.899c2.438-1.218,5.175-1.829,8.211-1.829c2.484,0,4.749,0.323,6.797,0.966
			c2.046,0.645,3.795,1.622,5.244,2.932c1.449,1.311,2.575,2.945,3.381,4.899c0.804,1.956,1.207,4.221,1.207,6.796
			c0,1.749-0.184,3.612-0.552,5.589H272.43C272.384,84.239,272.361,84.446,272.361,84.629z M289.577,75.073
			c-0.161-0.897-0.472-1.713-0.932-2.449c-0.46-0.735-1.128-1.322-2.001-1.76c-0.875-0.437-2.024-0.655-3.449-0.655
			c-1.381,0-2.6,0.207-3.658,0.621c-1.059,0.414-1.979,0.966-2.76,1.656c-0.782,0.69-1.438,1.496-1.967,2.415
			c-0.529,0.921-0.978,1.887-1.345,2.898h16.353C289.818,76.879,289.738,75.97,289.577,75.073z"/>
		<path fill="#B862FC" d="M317.832,63.792l-1.449,6.417l0.139,0.138c1.104-2.484,2.771-4.357,5.002-5.624
			c2.23-1.265,4.658-1.897,7.279-1.897c1.012,0,2.023,0.069,3.036,0.207l-2.001,9.522c-0.689-0.138-1.38-0.276-2.07-0.414
			c-0.689-0.138-1.379-0.207-2.069-0.207c-1.887,0-3.485,0.322-4.796,0.966c-1.311,0.645-2.414,1.518-3.312,2.622
			c-0.896,1.104-1.609,2.358-2.139,3.76c-0.529,1.404-0.955,2.864-1.275,4.382l-3.312,15.801h-9.729l7.383-35.673H317.832z"/>
		<path fill="#B862FC" d="M345.982,63.792l-1.104,4.968h0.138c3.174-3.956,7.337-5.934,12.489-5.934
			c6.945,0,10.419,3.198,10.419,9.591c0,0.369-0.046,0.84-0.138,1.415c-0.094,0.576-0.197,1.162-0.311,1.759
			c-0.115,0.598-0.23,1.162-0.346,1.69c-0.115,0.529-0.195,0.955-0.241,1.276l-4.416,20.907h-9.798l4.347-20.907
			c0.092-0.552,0.218-1.287,0.38-2.208c0.16-0.919,0.241-1.632,0.241-2.139c0-1.058-0.495-1.932-1.483-2.622
			c-0.99-0.69-2.059-1.035-3.209-1.035c-1.473,0-2.771,0.288-3.898,0.863c-1.127,0.576-2.094,1.323-2.897,2.242
			c-0.806,0.921-1.473,1.979-2.001,3.174c-0.529,1.197-0.932,2.415-1.207,3.657l-4.002,18.975h-9.729l7.383-35.673H345.982z"/>
		<path fill="#B862FC" d="M378.343,69.001c1.057-1.495,2.346-2.702,3.863-3.623c1.518-0.92,3.22-1.575,5.106-1.967
			c1.886-0.39,3.841-0.586,5.864-0.586c1.61,0,3.289,0.116,5.037,0.345c1.748,0.23,3.357,0.679,4.83,1.345
			c1.473,0.667,2.68,1.611,3.623,2.829c0.941,1.22,1.391,2.841,1.346,4.865c0,1.702-0.254,3.703-0.76,6.003l-3.174,14.352
			c-0.184,0.645-0.311,1.438-0.379,2.38c-0.069,0.943-0.104,1.76-0.104,2.45c0,0.598,0.113,1.288,0.345,2.07h-9.798v-3.519
			c-1.335,1.518-2.967,2.634-4.899,3.347c-1.932,0.712-3.933,1.069-6.003,1.069c-1.932,0-3.623-0.253-5.071-0.759
			c-1.449-0.506-2.657-1.184-3.622-2.036c-0.967-0.851-1.68-1.839-2.14-2.967c-0.459-1.127-0.69-2.312-0.69-3.554
			c0-3.45,1.185-6.21,3.555-8.28c2.368-2.07,5.715-3.357,10.039-3.864c2.299-0.276,4.301-0.483,6.003-0.621
			c1.701-0.138,3.116-0.355,4.243-0.655c1.127-0.299,1.967-0.735,2.519-1.311c0.552-0.575,0.828-1.437,0.828-2.587
			c0-0.92-0.207-1.656-0.621-2.208c-0.414-0.552-0.931-0.989-1.552-1.311c-0.621-0.321-1.289-0.54-2.002-0.656
			c-0.713-0.114-1.392-0.172-2.035-0.172c-1.748,0-3.312,0.426-4.691,1.276c-1.381,0.852-2.232,2.174-2.554,3.968h-9.177
			C376.594,72.371,377.285,70.496,378.343,69.001z M392.97,83.698c-1.426,0.162-2.852,0.288-4.277,0.379
			c-0.921,0.093-1.818,0.242-2.691,0.449c-0.874,0.207-1.645,0.518-2.311,0.932c-0.668,0.414-1.208,0.978-1.622,1.69
			c-0.414,0.714-0.621,1.622-0.621,2.726c0,1.334,0.54,2.335,1.622,3.001c1.08,0.667,2.334,1,3.76,1c1.518,0,2.795-0.242,3.83-0.725
			s1.908-1.104,2.621-1.863c0.713-0.759,1.277-1.622,1.691-2.588c0.414-0.966,0.759-1.932,1.035-2.898l0.965-3.45
			C395.731,83.089,394.396,83.537,392.97,83.698z"/>
		<path fill="#B862FC" d="M437.958,63.792l-1.518,6.555h-6.97l-3.657,17.733c-0.092,0.369-0.162,0.702-0.207,1
			c-0.046,0.299-0.068,0.517-0.068,0.655c0,0.645,0.104,1.139,0.311,1.483c0.207,0.345,0.471,0.61,0.793,0.793
			c0.321,0.185,0.678,0.288,1.07,0.311c0.39,0.024,0.77,0.035,1.138,0.035c1.196,0,2.368-0.069,3.519-0.207l-1.655,7.521
			c-1.013,0.092-2.024,0.172-3.036,0.242c-1.012,0.069-2.047,0.103-3.105,0.103c-1.15,0-2.289-0.103-3.415-0.31
			c-1.128-0.207-2.14-0.575-3.036-1.104c-0.896-0.528-1.61-1.253-2.139-2.174c-0.529-0.919-0.771-2.115-0.725-3.588
			c0-0.459,0.045-0.977,0.139-1.552c0.091-0.575,0.206-1.184,0.344-1.829l4.002-19.113h-6.416l1.518-6.555h6.279l2.207-10.833h9.799
			l-2.208,10.833H437.958z"/>
		<path fill="#B862FC" d="M453.896,63.792l-7.59,35.673h-9.797l7.52-35.673H453.896z M445.134,58.271l1.793-8.073h9.867
			l-1.793,8.073H445.134z"/>
		<path fill="#B862FC" d="M457.244,76.453c0.941-2.691,2.299-5.047,4.07-7.072c1.77-2.023,3.922-3.623,6.451-4.795
			c2.529-1.173,5.383-1.76,8.557-1.76c2.438,0,4.68,0.311,6.727,0.932s3.807,1.553,5.279,2.794c1.471,1.242,2.609,2.807,3.416,4.692
			c0.805,1.887,1.207,4.118,1.207,6.693c0,3.128-0.473,6.061-1.414,8.797c-0.943,2.737-2.312,5.118-4.105,7.142
			c-1.795,2.024-3.969,3.612-6.521,4.761c-2.553,1.149-5.463,1.725-8.729,1.725c-4.967,0-8.936-1.276-11.902-3.83
			c-2.967-2.553-4.449-6.382-4.449-11.488C455.83,82.007,456.3,79.144,457.244,76.453z M466.076,88.08
			c0.299,0.966,0.746,1.817,1.346,2.553c0.596,0.736,1.332,1.323,2.207,1.76c0.873,0.438,1.887,0.655,3.037,0.655
			c1.838,0,3.414-0.494,4.727-1.483c1.311-0.989,2.391-2.231,3.242-3.726c0.85-1.494,1.482-3.116,1.896-4.865
			c0.414-1.748,0.621-3.381,0.621-4.899c0-2.391-0.541-4.3-1.621-5.727c-1.08-1.425-2.932-2.139-5.555-2.139
			c-1.793,0-3.346,0.495-4.656,1.483c-1.312,0.99-2.381,2.22-3.209,3.691c-0.828,1.473-1.449,3.07-1.863,4.795
			s-0.621,3.347-0.621,4.865C465.626,86.102,465.775,87.113,466.076,88.08z"/>
		<path fill="#B862FC" d="M512.062,63.792l-1.104,4.968h0.139c3.174-3.956,7.336-5.934,12.488-5.934
			c6.945,0,10.42,3.198,10.42,9.591c0,0.369-0.047,0.84-0.139,1.415c-0.092,0.576-0.195,1.162-0.311,1.759
			c-0.115,0.598-0.23,1.162-0.346,1.69c-0.115,0.529-0.195,0.955-0.24,1.276l-4.416,20.907h-9.799l4.348-20.907
			c0.092-0.552,0.217-1.287,0.379-2.208c0.16-0.919,0.242-1.632,0.242-2.139c0-1.058-0.496-1.932-1.484-2.622
			c-0.99-0.69-2.059-1.035-3.209-1.035c-1.473,0-2.771,0.288-3.898,0.863c-1.127,0.576-2.094,1.323-2.896,2.242
			c-0.807,0.921-1.473,1.979-2.002,3.174c-0.529,1.197-0.932,2.415-1.207,3.657l-4.002,18.975h-9.729l7.383-35.673H512.062z"/>
		<path fill="#B862FC" d="M544.423,69.001c1.057-1.495,2.346-2.702,3.863-3.623c1.518-0.92,3.219-1.575,5.105-1.967
			c1.887-0.39,3.842-0.586,5.865-0.586c1.609,0,3.289,0.116,5.037,0.345c1.748,0.23,3.357,0.679,4.83,1.345
			c1.473,0.667,2.68,1.611,3.623,2.829c0.941,1.22,1.391,2.841,1.346,4.865c0,1.702-0.254,3.703-0.76,6.003l-3.174,14.352
			c-0.184,0.645-0.311,1.438-0.379,2.38c-0.07,0.943-0.104,1.76-0.104,2.45c0,0.598,0.113,1.288,0.344,2.07h-9.797v-3.519
			c-1.334,1.518-2.967,2.634-4.898,3.347c-1.934,0.712-3.934,1.069-6.004,1.069c-1.932,0-3.623-0.253-5.072-0.759
			c-1.447-0.506-2.656-1.184-3.621-2.036c-0.967-0.851-1.68-1.839-2.139-2.967c-0.461-1.127-0.691-2.312-0.691-3.554
			c0-3.45,1.184-6.21,3.555-8.28c2.367-2.07,5.715-3.357,10.039-3.864c2.299-0.276,4.301-0.483,6.002-0.621
			c1.701-0.138,3.117-0.355,4.244-0.655c1.127-0.299,1.967-0.735,2.52-1.311c0.551-0.575,0.828-1.437,0.828-2.587
			c0-0.92-0.207-1.656-0.621-2.208c-0.414-0.552-0.932-0.989-1.553-1.311c-0.621-0.321-1.289-0.54-2.002-0.656
			c-0.713-0.114-1.391-0.172-2.035-0.172c-1.748,0-3.312,0.426-4.691,1.276c-1.381,0.852-2.232,2.174-2.553,3.968h-9.178
			C542.673,72.371,543.365,70.496,544.423,69.001z M559.05,83.698c-1.426,0.162-2.852,0.288-4.277,0.379
			c-0.92,0.093-1.818,0.242-2.691,0.449s-1.645,0.518-2.311,0.932c-0.668,0.414-1.209,0.978-1.623,1.69
			c-0.412,0.714-0.619,1.622-0.619,2.726c0,1.334,0.539,2.335,1.621,3.001c1.08,0.667,2.334,1,3.76,1
			c1.518,0,2.795-0.242,3.83-0.725s1.908-1.104,2.621-1.863c0.713-0.759,1.277-1.622,1.691-2.588
			c0.414-0.966,0.758-1.932,1.035-2.898l0.965-3.45C561.81,83.089,560.476,83.537,559.05,83.698z"/>
		<path fill="#B862FC" d="M597.277,50.198l-10.488,49.266h-9.729l10.418-49.266H597.277z"/>
	</g>
</g>
<g id="Layer_2" display="none">
	<line display="inline" fill="none" stroke="#231F20" stroke-miterlimit="10" x1="555.25" y1="244.58" x2="633.299" y2="-117.616"/>
	
		<line display="inline" fill="none" stroke="#231F20" stroke-miterlimit="10" x1="425.032" y1="221.654" x2="503.081" y2="-140.542"/>
</g>
</svg>
